<?xml version="1.0" encoding="UTF-8" standalone="no"?>
<!-- Created with Inkscape (http://www.inkscape.org/) -->

<svg
   xmlns:dc="http://purl.org/dc/elements/1.1/"
   xmlns:cc="http://creativecommons.org/ns#"
   xmlns:rdf="http://www.w3.org/1999/02/22-rdf-syntax-ns#"
   xmlns:svg="http://www.w3.org/2000/svg"
   xmlns="http://www.w3.org/2000/svg"
   xmlns:xlink="http://www.w3.org/1999/xlink"
   xmlns:sodipodi="http://sodipodi.sourceforge.net/DTD/sodipodi-0.dtd"
   xmlns:inkscape="http://www.inkscape.org/namespaces/inkscape"
   width="512"
   height="512"
   id="svg2"
   version="1.1"
   inkscape:version="0.48.3.1 r9886"
   sodipodi:docname="Otter.preview4.svg">
  <defs
     id="defs4">
    <linearGradient
       id="linearGradient3905">
      <stop
         id="stop3907"
         offset="0"
         style="stop-color:#ffffff;stop-opacity:1;" />
      <stop
         id="stop3909"
         offset="1"
         style="stop-color:#c59641;stop-opacity:0;" />
    </linearGradient>
    <linearGradient
       id="linearGradient3858">
      <stop
         style="stop-color:#edd19d;stop-opacity:1;"
         offset="0"
         id="stop3860" />
      <stop
         style="stop-color:#edd19d;stop-opacity:0;"
         offset="1"
         id="stop3862" />
    </linearGradient>
    <linearGradient
       id="linearGradient4188">
      <stop
         style="stop-color:#1483ff;stop-opacity:1;"
         offset="0"
         id="stop4190" />
      <stop
         style="stop-color:#beddff;stop-opacity:0;"
         offset="1"
         id="stop4192" />
    </linearGradient>
    <linearGradient
       id="linearGradient3996">
      <stop
         style="stop-color:#37a3ff;stop-opacity:1;"
         offset="0"
         id="stop3998" />
      <stop
         style="stop-color:#d8e2e6;stop-opacity:1;"
         offset="1"
         id="stop4000" />
    </linearGradient>
    <linearGradient
       id="linearGradient3988">
      <stop
         style="stop-color:#4aa9ff;stop-opacity:1;"
         offset="0"
         id="stop3990" />
      <stop
         style="stop-color:#4aa9ff;stop-opacity:0.26797387;"
         offset="1"
         id="stop3992" />
    </linearGradient>
    <linearGradient
       id="linearGradient3924">
      <stop
         style="stop-color:#ffffff;stop-opacity:1;"
         offset="0"
         id="stop3926" />
      <stop
         style="stop-color:#c9d4e6;stop-opacity:1;"
         offset="1"
         id="stop3928" />
    </linearGradient>
    <linearGradient
       id="linearGradient4241">
      <stop
         style="stop-color:#000000;stop-opacity:1;"
         offset="0"
         id="stop4243" />
      <stop
         style="stop-color:#743800;stop-opacity:0.54901963;"
         offset="1"
         id="stop4245" />
    </linearGradient>
    <linearGradient
       id="linearGradient4181">
      <stop
         id="stop4183"
         offset="0"
         style="stop-color:#784421;stop-opacity:1;" />
      <stop
         id="stop4185"
         offset="1"
         style="stop-color:#deb15a;stop-opacity:1;" />
    </linearGradient>
    <linearGradient
       id="linearGradient4145">
      <stop
         style="stop-color:#9b6534;stop-opacity:1;"
         offset="0"
         id="stop4147" />
      <stop
         style="stop-color:#e6a556;stop-opacity:0;"
         offset="1"
         id="stop4149" />
    </linearGradient>
    <linearGradient
       id="linearGradient3779">
      <stop
         style="stop-color:#0078ff;stop-opacity:1;"
         offset="0"
         id="stop3781" />
      <stop
         style="stop-color:#ffffff;stop-opacity:1;"
         offset="1"
         id="stop3783" />
    </linearGradient>
    <linearGradient
       inkscape:collect="always"
       xlink:href="#linearGradient3779"
       id="linearGradient3787"
       x1="140.81055"
       y1="779.75232"
       x2="411.90845"
       y2="413.82675"
       gradientUnits="userSpaceOnUse" />
    <radialGradient
       inkscape:collect="always"
       xlink:href="#linearGradient4145"
       id="radialGradient4171"
       cx="187.75626"
       cy="978.42615"
       fx="187.75626"
       fy="978.42615"
       r="35.24752"
       gradientTransform="matrix(1.0364292,0.5640469,-0.40945179,0.75236258,398.38008,139.4583)"
       gradientUnits="userSpaceOnUse" />
    <linearGradient
       inkscape:collect="always"
       xlink:href="#linearGradient4241"
       id="linearGradient4247"
       x1="182.25566"
       y1="723.83666"
       x2="229.50136"
       y2="723.83666"
       gradientUnits="userSpaceOnUse" />
    <radialGradient
       inkscape:collect="always"
       xlink:href="#linearGradient4241"
       id="radialGradient4255"
       cx="312.25635"
       cy="720.22925"
       fx="312.25635"
       fy="720.22925"
       r="39.318497"
       gradientTransform="matrix(5.486935,-0.69152214,0.06852966,0.54375381,-1446.4517,542.55399)"
       gradientUnits="userSpaceOnUse" />
    <filter
       inkscape:collect="always"
       id="filter5818"
       x="-0.5031748"
       width="2.0063496"
       y="-0.48502848"
       height="1.970057">
      <feGaussianBlur
         inkscape:collect="always"
         stdDeviation="16.039634"
         id="feGaussianBlur5820" />
    </filter>
    <linearGradient
       inkscape:collect="always"
       xlink:href="#linearGradient4145"
       id="linearGradient5824"
       gradientUnits="userSpaceOnUse"
       gradientTransform="matrix(1.1537601,0.04312158,-0.0463947,1.2413356,20.036986,-253.99986)"
       x1="248.86356"
       y1="966.33557"
       x2="123.4153"
       y2="1014.9003" />
    <linearGradient
       inkscape:collect="always"
       xlink:href="#linearGradient4181"
       id="linearGradient3884"
       x1="222.40564"
       y1="979.52643"
       x2="317.54156"
       y2="730.52643"
       gradientUnits="userSpaceOnUse" />
    <radialGradient
       inkscape:collect="always"
       xlink:href="#linearGradient3924"
       id="radialGradient3932"
       cx="210.9041"
       cy="744.07831"
       fx="210.9041"
       fy="744.07831"
       r="24.991377"
       gradientTransform="matrix(1,0,0,0.79029732,0,156.03521)"
       gradientUnits="userSpaceOnUse" />
    <linearGradient
       inkscape:collect="always"
       xlink:href="#linearGradient3988"
       id="linearGradient3994"
       x1="185.43062"
       y1="216.4375"
       x2="214.06938"
       y2="216.4375"
       gradientUnits="userSpaceOnUse" />
    <linearGradient
       inkscape:collect="always"
       xlink:href="#linearGradient3996"
       id="linearGradient4002"
       x1="193.33749"
       y1="225.17473"
       x2="208.4041"
       y2="209.99074"
       gradientUnits="userSpaceOnUse" />
    <filter
       inkscape:collect="always"
       id="filter4168">
      <feGaussianBlur
         inkscape:collect="always"
         stdDeviation="6.9184955"
         id="feGaussianBlur4170" />
    </filter>
    <linearGradient
       inkscape:collect="always"
       xlink:href="#linearGradient4188"
       id="linearGradient4194"
       x1="-12.029868"
       y1="1143.9032"
       x2="373.73819"
       y2="657.18701"
       gradientUnits="userSpaceOnUse" />
    <linearGradient
       inkscape:collect="always"
       xlink:href="#linearGradient3858"
       id="linearGradient3864"
       x1="358.8421"
       y1="719.30823"
       x2="297.43484"
       y2="759.43982"
       gradientUnits="userSpaceOnUse" />
    <linearGradient
       inkscape:collect="always"
       xlink:href="#linearGradient3905"
       id="linearGradient3864-1"
       x1="114.76315"
       y1="772.59772"
       x2="148.75064"
       y2="793.65039"
       gradientUnits="userSpaceOnUse" />
    <radialGradient
       inkscape:collect="always"
       xlink:href="#linearGradient4145"
       id="radialGradient3919"
       gradientUnits="userSpaceOnUse"
       gradientTransform="matrix(-1.0364292,0.5640469,0.40945179,0.75236258,125.74667,133.53724)"
       cx="187.75626"
       cy="978.42615"
       fx="187.75626"
       fy="978.42615"
       r="35.24752" />
    <linearGradient
       inkscape:collect="always"
       xlink:href="#linearGradient4145"
       id="linearGradient3921"
       gradientUnits="userSpaceOnUse"
       gradientTransform="matrix(-1.1537601,0.04312158,0.0463947,1.2413356,504.08976,-259.92092)"
       x1="248.86356"
       y1="966.33557"
       x2="123.4153"
       y2="1014.9003" />
    <linearGradient
       inkscape:collect="always"
       xlink:href="#linearGradient3905"
       id="linearGradient3929"
       gradientUnits="userSpaceOnUse"
       x1="127.71897"
       y1="767.60815"
       x2="143.92509"
       y2="796.83856"
       gradientTransform="matrix(3.2298981,4.1874546,-2.9527691,2.8299845,2114.6711,-1857.0008)" />
    <linearGradient
       inkscape:collect="always"
       xlink:href="#linearGradient3858"
       id="linearGradient3109"
       gradientUnits="userSpaceOnUse"
       x1="353.9079"
       y1="723.58453"
       x2="289.86908"
       y2="760.59113"
       gradientTransform="translate(5.6568543,1.4142136)" />
    <filter
       inkscape:collect="always"
       id="filter3903">
      <feGaussianBlur
         inkscape:collect="always"
         stdDeviation="2.3186822"
         id="feGaussianBlur3905" />
    </filter>
    <filter
       inkscape:collect="always"
       id="filter4085"
       x="-0.045958584"
       width="1.0919172"
       y="-0.16613898"
       height="1.332278">
      <feGaussianBlur
         inkscape:collect="always"
         stdDeviation="2.7316268"
         id="feGaussianBlur4087" />
    </filter>
  </defs>
  <sodipodi:namedview
     id="base"
     pagecolor="#ffffff"
     bordercolor="#666666"
     borderopacity="1.0"
     inkscape:pageopacity="0.0"
     inkscape:pageshadow="2"
     inkscape:zoom="1.4142136"
     inkscape:cx="281.07271"
     inkscape:cy="234.64388"
     inkscape:document-units="px"
     inkscape:current-layer="layer1"
     showgrid="false"
     inkscape:window-width="1645"
     inkscape:window-height="1050"
     inkscape:window-x="35"
     inkscape:window-y="-25"
     inkscape:window-maximized="1"
     showguides="true"
     inkscape:guide-bbox="true"
     inkscape:snap-bbox="true" />
  <metadata
     id="metadata7">
    <rdf:RDF>
      <cc:Work
         rdf:about="">
        <dc:format>image/svg+xml</dc:format>
        <dc:type
           rdf:resource="http://purl.org/dc/dcmitype/StillImage" />
        <dc:title />
      </cc:Work>
    </rdf:RDF>
  </metadata>
  <g
     inkscape:label="Layer 1"
     inkscape:groupmode="layer"
     id="layer1"
     transform="translate(0,-540.36218)">
    <path
       sodipodi:nodetypes="scsscsccssscccs"
       inkscape:connector-curvature="0"
       id="path3892"
       d="m 226.96692,699.13265 c 15.43701,0 34.95856,2.46808 47.72948,9.41221 7.1155,-3.41167 18.34257,-1.24264 26.89023,-2.92067 37.89779,-7.43988 59.98049,-5.10141 66.70046,15.57457 4.14938,12.7668 5.95505,37.94556 -8.09907,51.63231 1.46188,3.96681 7.96053,26.83244 7.58386,29.04563 -6.55461,38.51305 -34.81426,39.0346 -51.2167,48.55269 -5.49022,5.91141 -3.11097,20.86677 -0.80622,26.27898 5.75844,12.25449 32.62755,53.51272 36.47203,65.43097 22.00199,68.20816 23.18119,23.09399 -4.92778,48.7837 -132.2486,120.86626 -165.33058,22.52016 -204.04462,-59.86691 -22.92975,-48.79665 -9.15633,-87.81044 -3.46107,-122.46736 -16.8974,-2.01692 -33.58495,-19.67682 -24.61804,-35.96783 5.41137,-8.47303 22.304,-14.89387 32.79431,-15.17576 13.52463,-34.98965 40.28488,-58.31253 79.00313,-58.31253 z"
       style="fill:#643400;fill-opacity:1;stroke:none" />
    <path
       style="fill:url(#linearGradient3884);fill-opacity:1;stroke:none;stroke-width:3;stroke-miterlimit:1;stroke-opacity:1;stroke-dasharray:none;opacity:1"
       d="m 232.62717,700.38265 c 14.34805,0 30.86595,3.84091 42.73599,10.5625 6.61355,-3.30233 15.68576,-4.6746 23.59914,-6.45689 35.53216,-8.00274 63.45098,-2.81471 68.73383,20.64116 3.2721,14.52812 4.58173,35.86189 -10.54849,47.31573 3.11372,2.27314 8.21324,28.09649 7.28125,31.74461 -6.39722,25.04097 -18.397,28.19414 -49.69504,43.60884 -5.10293,5.72196 -5.67989,22.61792 -3.53772,27.85668 5.35223,11.86176 31.95248,50.10384 35.52576,61.64013 20.44992,66.02229 20.61648,23.56382 -5.50962,48.43023 -122.91948,116.99276 -153.66778,20.83046 -189.65084,-58.91626 -21.31224,-47.23282 -13.15771,-86.9322 -7.86422,-120.47845 -15.70541,-1.95228 -33.77179,-16.14236 -25.43743,-31.91128 5.02964,-8.20148 20.96299,-14.65854 30.71329,-14.93139 12.57057,-33.86831 47.66712,-59.10561 83.6541,-59.10561 z"
       id="path3783"
       inkscape:connector-curvature="0"
       sodipodi:nodetypes="scsscsccssscccs" />
    <path
       style="fill:#643400;fill-opacity:1;stroke:none"
       d="m 151.49507,813.34137 c -16.8974,-2.01692 -45.2925,-24.42942 -36.32559,-40.72043 5.41137,-8.47303 22.74594,-13.65015 33.23625,-13.93204 -1.42457,0.39426 20.70687,5.02615 7.89375,2.81306 -26.40116,-4.56003 -41.64868,11.88442 -40.2771,24.59498 0.42929,3.97827 10.73362,13.75594 15.59829,15.52326 16.67397,6.0576 18.37587,6.13578 19.8744,11.72117 z"
       id="path3911"
       inkscape:connector-curvature="0"
       sodipodi:nodetypes="cccsssc" />
    <path
       style="opacity:0.15312500000000001;color:#000000;fill:url(#linearGradient3929);fill-opacity:1;fill-rule:nonzero;stroke:none;marker:none;visibility:visible;display:inline;overflow:visible;enable-background:accumulate"
       d="m 345.57033,999.87814 c -12.66154,34.05486 -79.21791,41.31666 -101.45001,17.53896 -27.24613,-29.14031 -76.65523,-78.40472 -83.888,-116.98617 12.41912,-54.13042 138.86911,-43.26552 153.03263,0.58828 13.8106,42.76107 39.034,72.7747 32.30538,98.85893 z"
       id="path3927"
       inkscape:connector-curvature="0"
       sodipodi:nodetypes="cscsc" />
    <path
       style="fill:url(#linearGradient3864);fill-opacity:1;stroke:none"
       d="m 367.26974,756.92138 c -1.2962,3.53929 -5.18562,11.64888 -8.96495,13.90804 -2.18669,1.30713 -1.77848,1.90063 -1.84277,1.26387 -0.0612,-0.6059 1.51837,3.39207 2.22802,5.06264 0.69392,1.63356 5.91178,21.48272 5.04762,26.60606 -1.23678,7.3325 -6.86697,18.61606 -10.47907,20.06948 -13.95441,5.61489 -39.74618,-11.2193 -56.25859,-11.2193 -31.20409,0 -62.5,-42.86367 -62.5,-66.74999 0,-23.88632 62.54592,-42.75 93.75,-42.75 19.79209,0 25.64264,2.84429 35.30481,14.99139 6.50735,8.18092 6.74382,30.54742 3.71493,38.81781 z"
       id="path4275"
       inkscape:connector-curvature="0"
       sodipodi:nodetypes="sssssssssss" />
    <path
       sodipodi:nodetypes="cssssssc"
       inkscape:connector-curvature="0"
       id="path4075"
       d="m 221.41697,780.97443 c 1.17591,-6.27724 16.94108,-8.4115 14.118,-8.18921 -6.50448,0.51216 -8.59638,2.83793 -8.23861,3.48535 4.07555,7.37492 16.03014,38.40923 56.84343,26.97911 9.58184,-2.68348 19.20533,-3.30837 24.4995,-8.05448 14.73944,-13.2136 18.58398,-19.5914 25.22703,-27.81262 1.28606,-1.59159 2.91207,1.09907 8.3619,4.41874 1.00231,0.61054 8.5603,0.50042 8.418,-0.82208"
       style="opacity:0.20625;fill:none;stroke:#582d00;stroke-width:2.64599991;stroke-linecap:round;stroke-linejoin:round;stroke-miterlimit:4;stroke-opacity:1;stroke-dasharray:none" />
    <path
       sodipodi:nodetypes="csssscsssssssc"
       inkscape:connector-curvature="0"
       id="path3107"
       d="m 360.26212,767.21717 c -6.41382,0.0153 -7.28628,-5.35632 -14.1456,-8.99826 -3.22802,-1.71391 -9.8463,-5.34775 -13.97046,-3.78494 -10.98415,4.16234 -21.28456,21.09209 -30.77916,27.92045 -15.30862,11.00971 -31.10566,9.64374 -24.32782,27.22041 21.93241,56.87634 -126.11637,19.18453 17.63508,3.60125 -4.00816,-10.32518 38.3212,-40.59664 58.69659,-31.48803 5.61874,2.5118 10.21275,13.39104 10.92508,22.00788 1.24619,15.0748 -37.77748,45.11765 -39.91986,40.46422 -23.93171,-51.9816 -69.68976,-29.3741 -86.1928,-28.81798 -425.67962,14.34456 -7.89474,-26.4163 -7.89474,-50.30262 0,-23.88632 72.41434,-60.51316 103.61842,-60.51316 19.79209,0 15.14794,-4.64149 29.87718,17.29402 11.74051,17.48455 5.19065,46.68704 -3.52191,45.39676 z"
       style="fill:url(#linearGradient3109);fill-opacity:1;stroke:none;filter:url(#filter3903)" />
    <path
       sodipodi:nodetypes="cscsc"
       inkscape:connector-curvature="0"
       id="path4257"
       d="m 324.71666,740.05787 c 23.24793,-12.0232 50.5323,-39.62725 21.39631,-42.76044 -0.88357,-0.095 -13.06197,-0.72622 -14.02923,-0.776 -42.10271,1.47502 -60.02517,11.09547 -57.18276,16.21535 8.6897,15.65227 20.98865,28.89719 49.81568,27.32109 z"
       style="fill:#733200;fill-opacity:1;stroke:none" />
    <g
       transform="scale(1.0203694,0.98003719)"
       style="font-size:727.22821045000000595px;font-style:normal;font-variant:normal;font-weight:bold;font-stretch:normal;line-height:125%;letter-spacing:0px;word-spacing:0px;fill:url(#linearGradient3787);fill-opacity:1;stroke:#0065d8;font-family:Bitstream Charter;-inkscape-font-specification:Bitstream Charter Bold;opacity:1;stroke-width:3.00000006000000008;stroke-miterlimit:1;stroke-dasharray:none;stroke-opacity:1"
       id="text2985">
      <path
         d="m 5.6330013,809.38968 c 0,154.89945 99.6304187,258.16602 250.1665087,258.16602 61.0871,0 119.26547,-22.5441 163.62634,-63.9961 50.90593,-47.26977 77.81342,-112.72044 77.81342,-189.80655 0,-82.17671 -30.54364,-151.99074 -86.54016,-199.98776 -44.36087,-37.81583 -97.44864,-56.7238 -159.9902,-56.7238 -67.63216,0 -124.35607,21.08966 -170.171403,63.26886 C 31.086038,666.12568 5.6330013,730.12188 5.6330013,809.38968 M 252.16336,603.5841 c 79.2678,0 147.75213,77.81355 147.75213,212.35063 0,128.71927 -69.21156,207.26007 -149.20658,207.26007 -77.81334,0 -148.47936,-78.54081 -148.47936,-212.35066 0,-130.17372 69.21156,-207.26004 149.93381,-207.26004"
         id="path2990"
         inkscape:connector-curvature="0"
         sodipodi:nodetypes="cscscscccsssc"
         style="fill:url(#linearGradient3787);fill-opacity:1;stroke:#0065d8;stroke-width:3.00000006000000008;stroke-miterlimit:1;stroke-dasharray:none;stroke-opacity:1" />
    </g>
    <path
       sodipodi:nodetypes="csssccc"
       inkscape:connector-curvature="0"
       id="path3985"
       d="m 214.83453,784.56449 c 0.67665,0.82784 4.22586,-6.95631 7.60536,-7.90081 5.43359,-1.51858 20.38083,-6.12266 21.82345,-5.28454 0.91702,0.53276 -16.36928,6.5101 -15.8249,7.32066 9.0255,13.43862 10.68552,31.1067 42.50058,26.97274 36.36191,-3.88702 38.03109,-6.73682 63.71897,-38.65673 1.7039,-2.00837 20.32319,12.49306 22.82463,10.52408"
       style="fill:none;stroke:#a05200;stroke-width:2.43125129000000006;stroke-linecap:butt;stroke-linejoin:miter;stroke-miterlimit:4;stroke-opacity:1;opacity:0.51000000000000001;filter:url(#filter4085)" />
    <g
       id="g4060"
       style="font-size:727.22821045000000595px;font-style:normal;font-variant:normal;font-weight:bold;font-stretch:normal;line-height:125%;letter-spacing:0px;word-spacing:0px;fill:url(#linearGradient4194);fill-opacity:1;stroke:none;font-family:Bitstream Charter;-inkscape-font-specification:Bitstream Charter Bold;opacity:1;stroke-width:3.00000006000000008;stroke-miterlimit:1;stroke-dasharray:none;stroke-opacity:1;"
       transform="scale(1.0203694,0.98003719)">
      <path
         style="fill:url(#linearGradient4194);fill-opacity:1;stroke:none;filter:url(#filter4168)"
         d="M 240.34375,576.90625 C 167.71293,578.19147 94.83836,616.43766 57.71875,679.75 24.095074,737.82024 18.942705,808.80401 32.341015,873.60139 c 12.889193,64.09257 54.223141,123.07877 114.257705,150.65431 75.52856,35.7962 171.44105,31.4305 239.66272,-18.9487 48.2113,-35.35087 80.50572,-90.93961 88.01679,-150.22041 9.90346,-67.28585 -3.88512,-140.14923 -46.20949,-194.34031 C 394.46395,616.9611 343.27817,587.134 288.5,579.46875 c -15.86826,-2.50678 -32.07611,-2.69174 -48.15625,-2.5625 z m 10.21875,6.5625 c 57.30043,-0.79652 110.42397,36.5702 135.7756,86.78409 33.99485,62.41191 39.51557,136.99863 28.42909,206.3263 -9.83593,55.26685 -37.09523,110.04324 -84.25155,142.26266 -43.85766,29.6807 -105.71813,33.2213 -150.85939,4.377 C 132.28985,994.87142 103.21448,943.50182 91.3413,890.58755 75.42228,823.95127 79.557943,751.77576 105.96875,688.4375 c 20.14184,-45.64428 58.04121,-85.91963 107.125,-99.5 12.18473,-3.37135 24.77882,-5.35239 37.46875,-5.46875 z"
         id="path4062"
         inkscape:connector-curvature="0" />
    </g>
    <path
       sodipodi:nodetypes="ccccsssccccscsc"
       inkscape:connector-curvature="0"
       id="path5756"
       d="m 204.81008,957.5974 c -15.96851,-14.67181 -29.09705,2.07321 -35.74847,11.34628 -3.2999,6.23976 -5.25925,8.62126 -14.35221,28.76175 -2.74216,6.68727 -9.24038,18.18407 -1.7848,20.96667 7.70919,4.67 27.03007,-38.59506 25.42484,-38.59571 -1.3079,-5.5e-4 -27.45673,29.74851 -19.97658,41.68051 12.21249,19.4809 27.61515,-34.10761 26.15455,-33.89527 -1.27362,0.18516 -24.34154,35.84657 -11.99286,41.80127 2.78637,1.1736 4.67444,-0.695 7.75143,-3.2552 9.60421,-4.9708 24.22967,-15.3772 26.522,-21.5221 0.68743,-3.0692 -25.8967,15.829 -26.11187,20.5752 -0.32916,9.742 5.87749,8.7948 11.37773,4.6076 10.51709,-8.0063 25.29946,-30.28565 25.19289,-32.49217 4.93733,-10.38883 7.16469,-19.43604 6.86544,-27.80462 -0.18264,-5.10767 -11.36664,-10.97588 -19.32209,-12.17421 z"
       style="opacity:0.46250000000000002;fill:#000000;fill-opacity:1;stroke:none;filter:url(#filter5818)"
       transform="matrix(1.0144503,0.23971541,-0.08791836,0.49807639,79.464997,475.67442)" />
    <path
       style="fill:#643400;fill-opacity:1;stroke:none"
       d="m 204.81008,957.5974 c -15.96851,-14.67181 -29.09705,2.07321 -35.74847,11.34628 -3.2999,6.23976 -5.25925,8.62126 -14.35221,28.76175 -2.74216,6.68727 -9.24038,18.18407 -1.7848,20.96667 7.70919,4.67 27.03007,-38.59506 25.42484,-38.59571 -1.3079,-5.5e-4 -27.45673,29.74851 -19.97658,41.68051 12.21249,19.4809 27.61515,-34.10761 26.15455,-33.89527 -1.27362,0.18516 -24.34154,35.84657 -11.99286,41.80127 2.78637,1.1736 4.67444,-0.695 7.75143,-3.2552 9.60421,-4.9708 24.22967,-15.3772 26.522,-21.5221 0.68743,-3.0692 -25.8967,15.829 -26.11187,20.5752 -0.32916,9.742 5.87749,8.7948 11.37773,4.6076 10.51709,-8.0063 25.29946,-30.28565 25.19289,-32.49217 4.93733,-10.38883 5.66469,-17.43604 5.36544,-25.80462 -0.18264,-5.10767 -9.86664,-12.97588 -17.82209,-14.17421 z"
       id="path3802"
       inkscape:connector-curvature="0"
       sodipodi:nodetypes="ccccsssccccscsc" />
    <path
       style="fill:url(#radialGradient4171);fill-opacity:1;stroke:none"
       d="m 220.19426,977.8234 c 0.52479,-2.73905 -6.43809,-16.58234 -16.64246,-15.78104 -10.06278,-13.82789 -21.3676,-5.34959 -22.42994,-3.98191 -15.9827,17.03679 -15.35369,24.61487 -24.8069,34.85447 -5.14831,5.57659 -4.42787,12.20108 -4.32562,16.16188 0.0168,0.6496 0.46417,12.8576 6.69123,4.1505 4.51862,-6.3181 17.3882,-31.39446 18.42571,-30.51779 1.36384,1.15241 -16.97353,31.41779 -18.1658,34.98999 -1.04184,3.1216 4.27724,11.5394 9.63705,3.74 7.09615,-10.3261 19.19947,-36.15126 20.88426,-35.06857 3.08884,1.98499 -20.93755,32.78127 -18.68221,39.00927 4.85563,13.4086 18.47397,-15.3854 27.58321,-29.13046 1.89917,-2.86564 2.6579,-1.34911 2.46144,-0.98487 -4.68689,8.68953 -35.62473,50.71953 -5.55305,29.08383 10.89346,-7.8375 18.24587,-26.34585 24.92308,-46.5253 z"
       id="path4169"
       inkscape:connector-curvature="0"
       sodipodi:nodetypes="cccsssssssssssc" />
    <path
       sodipodi:nodetypes="cscssssssccc"
       inkscape:connector-curvature="0"
       id="path4101"
       d="m 207.46341,961.14591 c -26.85133,-29.05927 -45.6531,23.47814 -55.99473,45.72979 -3.82623,8.2327 1.66307,15.9812 7.38867,6.7935 4.51862,-6.3181 17.21142,-31.83636 18.24893,-30.95969 1.36384,1.15241 -16.99052,31.41219 -18.1658,34.98999 -1.04184,3.1716 4.27724,11.7796 9.63705,3.74 6.95011,-10.425 19.19947,-36.15126 20.88426,-35.06857 3.08884,1.98499 -20.93755,32.78127 -18.68221,39.00927 4.85563,13.4086 18.47397,-15.3854 27.58321,-29.13046 1.89917,-2.86564 2.67523,-1.33922 2.46144,-0.98487 -12.53268,21.32353 -18.91093,27.50153 -19.05703,32.47423 2.01821,23.1751 67.53056,-61.16569 25.69621,-66.59319 z"
       style="fill:url(#linearGradient5824);fill-opacity:1;stroke:none" />
    <path
       sodipodi:nodetypes="cscsc"
       inkscape:connector-curvature="0"
       id="path3934"
       d="m 185.82862,762.83653 c 0.54213,0.74139 3.82927,1.94168 17.16218,-0.3445 12.92724,-2.21662 32.05156,-13.00607 32.11664,-19.53329 0.61953,-11.76758 -9.66977,-18.90282 -29.2956,-18.58037 -15.42731,0.25347 -21.48471,26.30329 -19.98322,38.45816 z"
       style="fill:#643400;fill-opacity:1;stroke:none" />
    <path
       style="opacity:1;fill:url(#radialGradient3932);fill-opacity:1;stroke:none;stroke-width:3.21087431999999984;stroke-miterlimit:1;stroke-opacity:1"
       d="m 187.51816,761.17251 c 10.9813,5.00643 46.66467,-8.93641 46.77188,-19.39655 0,-10.41614 -9.19616,-15.84284 -25.32559,-15.84284 -16.12943,0 -21.44629,24.82325 -21.44629,35.23939 z"
       id="path3000"
       inkscape:connector-curvature="0"
       sodipodi:nodetypes="ccsc" />
    <path
       style="fill:url(#radialGradient4255);fill-opacity:1;stroke:none"
       d="m 325.11485,738.04723 c 22.97069,-11.47046 40.76132,-32.974 16.13424,-36.46684 -20.6234,-4.24641 -28.84977,2.63693 -43.41153,6.55265 -22.01426,4.64057 -23.00914,1.46199 -20.68439,4.82994 9.45065,13.69151 18.21546,26.14381 47.96168,25.08425 z"
       id="path3771"
       inkscape:connector-curvature="0"
       sodipodi:nodetypes="cccsc" />
    <path
       style="fill:none;stroke:#582d00;stroke-width:0.63099998000000002;stroke-linecap:round;stroke-linejoin:round;stroke-miterlimit:4;stroke-opacity:1;stroke-dasharray:none"
       d="m 221.45953,780.56449 c 0.67665,0.82784 -0.19389,-2.40506 2.98036,-3.90081 4.90508,-2.31134 6.60123,-3.56426 8.32345,-3.65954 11.1755,-0.61829 -6.64955,-0.4298 -4.4499,2.69566 8.63785,12.27344 15.64805,37.01279 56.46599,26.12529 9.58293,-2.55609 18.56728,-3.56381 23.86205,-8.08461 14.74112,-12.58632 17.61382,-19.91388 24.25763,-27.74482 1.28621,-1.51603 3.19271,1.02402 8.77933,3.96265 1.81427,0.95433 7.7475,0.74211 8.36071,0.25943"
       id="path3798"
       inkscape:connector-curvature="0"
       sodipodi:nodetypes="csssssssc" />
    <path
       style="fill:url(#linearGradient4247);fill-opacity:1;stroke:none"
       d="m 223.78601,721.51653 c -17.79623,-12.8272 -28.08056,6.28642 -41.53035,13.44218 4.06777,-18.2401 32.76261,-29.66377 47.15729,-16.66125 0.82872,1.08239 -4.41034,3.01711 -5.62694,3.21907 z"
       id="path4191"
       inkscape:connector-curvature="0"
       sodipodi:nodetypes="cccc" />
    <path
       sodipodi:nodetypes="csscc"
       inkscape:connector-curvature="0"
       id="path4286"
       d="m 131.9555,768.32916 c 24.49357,-5.83537 18.54863,2.12259 21.3599,9.203 3.00971,7.58021 -0.0505,21.64857 -6.24095,22.40635 -7.5866,0.92869 -18.30068,-3.41566 -22.72806,-10.2652 -6.03103,-7.88162 -4.61094,-15.74288 7.60911,-21.34415 z"
       style="opacity:1;fill:url(#linearGradient3864-1);fill-opacity:1;stroke:none;color:#000000;fill-rule:nonzero;marker:none;visibility:visible;display:inline;overflow:visible;enable-background:accumulate" />
    <path
       sodipodi:type="arc"
       style="fill:url(#linearGradient4002);fill-opacity:1;stroke:url(#linearGradient3994);stroke-width:2.90272737;stroke-linecap:square;stroke-linejoin:miter;stroke-miterlimit:4;stroke-opacity:1;stroke-dasharray:none"
       id="path3978"
       sodipodi:cx="199.75"
       sodipodi:cy="216.4375"
       sodipodi:rx="10.5"
       sodipodi:ry="10.4375"
       d="m 210.25,216.4375 c 0,5.76447 -4.70101,10.4375 -10.5,10.4375 -5.79899,0 -10.5,-4.67303 -10.5,-10.4375 0,-5.76447 4.70101,-10.4375 10.5,-10.4375 5.79899,0 10.5,4.67303 10.5,10.4375 z"
       transform="matrix(0.89462934,0,0,0.84537455,39.035299,558.01394)" />
    <path
       sodipodi:nodetypes="ccccsssccccscsc"
       inkscape:connector-curvature="0"
       id="path3913"
       d="m 319.31667,951.67634 c 15.96851,-14.67181 29.09705,2.07321 35.74847,11.34628 3.2999,6.23976 5.25925,8.62126 14.35221,28.76175 2.74216,6.68725 9.24038,18.18413 1.7848,20.96673 -7.70919,4.67 -27.03007,-38.59512 -25.42484,-38.59577 1.3079,-5.5e-4 27.45673,29.74857 19.97658,41.68057 -12.21249,19.4809 -27.61515,-34.10767 -26.15455,-33.89533 1.27362,0.18516 24.34154,35.84663 11.99286,41.80133 -2.78637,1.1736 -4.67444,-0.695 -7.75143,-3.2552 -9.60421,-4.9708 -24.22967,-15.3772 -26.522,-21.52218 -0.68743,-3.06918 25.8967,15.82908 26.11187,20.57528 0.32916,9.742 -5.87749,8.7948 -11.37773,4.6076 -10.51709,-8.0063 -25.29946,-30.28571 -25.19289,-32.49223 -4.93733,-10.38883 -5.66469,-17.43604 -5.36544,-25.80462 0.18264,-5.10767 9.86664,-12.97588 17.82209,-14.17421 z"
       style="fill:#643400;fill-opacity:1;stroke:none" />
    <path
       sodipodi:nodetypes="cccsssssssssssc"
       inkscape:connector-curvature="0"
       id="path3915"
       d="m 303.93249,971.90234 c -0.52479,-2.73905 6.43809,-16.58234 16.64246,-15.78104 10.06278,-13.82789 21.3676,-5.34959 22.42994,-3.98191 15.9827,17.03679 15.35369,24.61487 24.8069,34.85447 5.14831,5.57659 4.42787,12.20106 4.32562,16.16194 -0.0168,0.6496 -0.46417,12.8576 -6.69123,4.1505 -4.51862,-6.3181 -17.3882,-31.39452 -18.42571,-30.51785 -1.36384,1.15241 16.97353,31.41785 18.1658,34.99005 1.04184,3.1216 -4.27724,11.5394 -9.63705,3.74 -7.09615,-10.3261 -19.19947,-36.15132 -20.88426,-35.06863 -3.08884,1.98499 20.93755,32.78133 18.68221,39.00933 -4.85563,13.4086 -18.47397,-15.3854 -27.58321,-29.13052 -1.89917,-2.86564 -2.6579,-1.34911 -2.46144,-0.98487 4.68689,8.68951 35.62473,50.71959 5.55305,29.08389 -10.89346,-7.8375 -18.24587,-26.34591 -24.92308,-46.52536 z"
       style="fill:url(#radialGradient3919);fill-opacity:1;stroke:none" />
    <path
       style="fill:url(#linearGradient3921);fill-opacity:1;stroke:none"
       d="m 316.66334,955.22485 c 26.85133,-29.05927 45.6531,23.47814 55.99473,45.72985 3.82623,8.2327 -1.66307,15.9812 -7.38867,6.7935 -4.51862,-6.3181 -17.21142,-31.83642 -18.24893,-30.95975 -1.36384,1.15241 16.99052,31.41225 18.1658,34.99005 1.04184,3.1716 -4.27724,11.7796 -9.63705,3.74 -6.95011,-10.425 -19.19947,-36.15132 -20.88426,-35.06863 -3.08884,1.98499 20.93755,32.78133 18.68221,39.00933 -4.85563,13.4086 -18.47397,-15.3854 -27.58321,-29.13052 -1.89917,-2.86564 -2.67523,-1.33922 -2.46144,-0.98487 12.53268,21.32359 18.91093,27.50159 19.05703,32.47429 -2.01821,23.1751 -67.53056,-61.16575 -25.69621,-66.59325 z"
       id="path3917"
       inkscape:connector-curvature="0"
       sodipodi:nodetypes="cscssssssccc" />
    <g
       id="g3963"
       transform="matrix(1.4220866,-0.41526672,0.3167168,0.66009271,-347.7347,372.50429)">
      <path
         inkscape:connector-curvature="0"
         d="m 283.94223,743.55802 c -0.60867,0.12256 -1.24672,0.3134 -1.86857,0.46511 -0.66396,0.14868 -1.33404,0.3063 -2.01119,0.48313 -1.00716,0.28094 -2.03086,0.64086 -3.03991,0.92793 -0.85058,0.23203 -1.71081,0.49637 -2.56783,0.7495 -0.80897,0.22638 -1.63763,0.53627 -2.45237,0.86671 -1.06333,0.46654 -2.11991,0.95161 -3.17533,1.43561 -1.45019,0.69386 -2.93433,1.31714 -4.40037,1.98241 -1.91524,0.87882 -3.80188,1.80305 -5.68577,2.72806 -1.36484,0.67259 -2.74199,1.33528 -4.03805,2.07476 -0.86245,0.46548 -1.58857,0.99346 -2.33474,1.50797 -0.46473,0.32584 -0.95301,0.63953 -1.45815,0.95006 0,0 1.92094,-1.8878 1.92094,-1.8878 l 0,0 c 0.4927,-0.31072 0.96671,-0.62705 1.43021,-0.94819 0.75127,-0.51774 1.50882,-1.03523 2.37968,-1.49911 1.30196,-0.71231 2.66396,-1.35803 4.01327,-2.01946 1.89415,-0.92585 3.79035,-1.85219 5.71231,-2.73655 1.47802,-0.6738 2.97081,-1.31721 4.4347,-2.01686 1.07324,-0.49309 2.14447,-0.99774 3.23179,-1.45893 0.83798,-0.33021 1.68325,-0.64016 2.51252,-0.86832 0.85418,-0.24766 1.71387,-0.51382 2.56172,-0.74107 1.01287,-0.29252 2.04049,-0.64539 3.05059,-0.92732 0.68853,-0.18517 1.37127,-0.35615 2.04239,-0.50278 0.62225,-0.15613 1.24929,-0.32179 1.87315,-0.48253 0,0 -2.13099,1.91766 -2.13099,1.91766 z"
         id="path3939"
         style="color:#000000;fill:#bb8e4d;fill-opacity:1;fill-rule:nonzero;stroke:none;stroke-width:1.89999998;marker:none;visibility:visible;display:inline;overflow:visible;enable-background:accumulate" />
      <path
         style="color:#000000;fill:#bb8e4d;fill-opacity:1;fill-rule:nonzero;stroke:none;stroke-width:1.89999998;marker:none;visibility:visible;display:inline;overflow:visible;enable-background:accumulate"
         id="path3941"
         d="m 287.42914,743.63549 c -0.55895,0.26137 -1.12896,0.59583 -1.69325,0.88855 -0.6059,0.29965 -1.21545,0.60938 -1.82696,0.93941 -0.90493,0.50826 -1.80577,1.09697 -2.71099,1.61161 -0.7656,0.42416 -1.53231,0.88192 -2.29876,1.32805 -0.72669,0.40894 -1.45116,0.90347 -2.1569,1.41467 -0.91206,0.70136 -1.81286,1.41913 -2.7128,2.1356 -1.2292,1.01238 -2.50934,1.96428 -3.7612,2.95266 -1.63297,1.30064 -3.22662,2.63861 -4.81741,3.97669 -1.15186,0.97178 -2.31819,1.93684 -3.38631,2.95739 -0.71755,0.65331 -1.28695,1.3353 -1.87924,2.00893 -0.36751,0.42477 -0.76096,0.84329 -1.17157,1.26268 0,0 1.38111,-2.28035 1.38111,-2.28035 l 0,0 c 0.39849,-0.41666 0.77742,-0.8344 1.14494,-1.25433 0.59641,-0.67795 1.19898,-1.35713 1.92509,-2.01086 1.08077,-0.99557 2.23673,-1.94063 3.37639,-2.89796 1.60052,-1.3413 3.2029,-2.68355 4.84097,-3.99113 1.26131,-0.99946 2.54468,-1.97291 3.7857,-2.99412 0.91491,-0.72944 1.82491,-1.46963 2.7616,-2.17144 0.72834,-0.5164 1.4689,-1.01488 2.21481,-1.43031 0.7651,-0.44015 1.53082,-0.89954 2.29499,-1.31843 0.90753,-0.52082 1.81396,-1.10363 2.72151,-1.61353 0.62041,-0.34078 1.23883,-0.66643 1.8522,-0.96577 0.56354,-0.29709 1.12931,-0.60456 1.69324,-0.90651 0,0 -1.57716,2.35849 -1.57716,2.35849 z"
         inkscape:connector-curvature="0" />
      <path
         inkscape:connector-curvature="0"
         d="m 290.47814,746.99362 c -0.55895,0.26137 -1.12896,0.59583 -1.69326,0.88855 -0.6059,0.29965 -1.21544,0.60938 -1.82695,0.93941 -0.90493,0.50826 -1.80578,1.09697 -2.71099,1.61161 -0.7656,0.42416 -1.53231,0.88192 -2.29876,1.32805 -0.72669,0.40894 -1.45116,0.90347 -2.1569,1.41466 -0.91207,0.70137 -1.81287,1.41914 -2.71281,2.13561 -1.2292,1.01238 -2.50933,1.96428 -3.76119,2.95266 -1.63297,1.30064 -3.22662,2.63861 -4.81741,3.97669 -1.15186,0.97178 -2.31819,1.93684 -3.38631,2.95739 -0.71755,0.65331 -1.28696,1.3353 -1.87924,2.00893 -0.36752,0.42477 -0.76096,0.84329 -1.17158,1.26268 0,0 1.38112,-2.28035 1.38112,-2.28035 l 0,0 c 0.39848,-0.41666 0.77742,-0.8344 1.14494,-1.25433 0.5964,-0.67795 1.19898,-1.35713 1.92509,-2.01086 1.08077,-0.99557 2.23673,-1.94063 3.37639,-2.89796 1.60051,-1.3413 3.2029,-2.68355 4.84097,-3.99113 1.26131,-0.99946 2.54468,-1.97291 3.7857,-2.99412 0.91491,-0.72944 1.82491,-1.46963 2.7616,-2.17144 0.72833,-0.51641 1.46889,-1.01488 2.21481,-1.43031 0.7651,-0.44015 1.53082,-0.89954 2.29499,-1.31843 0.90753,-0.52082 1.81395,-1.10363 2.7215,-1.61353 0.62041,-0.34078 1.23884,-0.66643 1.8522,-0.96577 0.56354,-0.29709 1.12931,-0.60456 1.69325,-0.90651 0,0 -1.57716,2.35849 -1.57716,2.35849 z"
         id="path3943"
         style="color:#000000;fill:#bb8e4d;fill-opacity:1;fill-rule:nonzero;stroke:none;stroke-width:1.89999998;marker:none;visibility:visible;display:inline;overflow:visible;enable-background:accumulate" />
      <path
         style="color:#000000;fill:#bb8e4d;fill-opacity:1;fill-rule:nonzero;stroke:none;stroke-width:1.89999998;marker:none;visibility:visible;display:inline;overflow:visible;enable-background:accumulate"
         id="path3945"
         d="m 295.52199,747.50772 c -0.47565,0.38395 -0.94344,0.84138 -1.4163,1.25698 -0.51145,0.43204 -1.02387,0.87471 -1.53304,1.33753 -0.74843,0.70415 -1.47244,1.48538 -2.21952,2.19579 -0.63468,0.59007 -1.26189,1.213 -1.89181,1.82457 -0.60081,0.56623 -1.17771,1.21495 -1.7322,1.87546 -0.70625,0.89312 -1.39739,1.79951 -2.08804,2.70443 -0.93474,1.26878 -1.93426,2.49078 -2.89708,3.74157 -1.25305,1.64259 -2.45847,3.31221 -3.66109,4.98127 -0.87005,1.21134 -1.75585,2.41955 -2.53229,3.65865 -0.52981,0.8011 -0.90864,1.59545 -1.3118,2.38702 -0.24843,0.49775 -0.52361,0.9955 -0.81521,1.49808 0,0 0.75966,-2.53399 0.75966,-2.53399 l 0,0 c 0.28054,-0.49712 0.54184,-0.99071 0.79151,-1.48377 0.40604,-0.79673 0.81777,-1.59609 1.35577,-2.3996 0.79505,-1.21783 1.67588,-2.40422 2.53778,-3.5987 1.21123,-1.67444 2.42404,-3.35026 3.68027,-5.00077 0.96917,-1.26373 1.96635,-2.50739 2.9103,-3.78749 0.70188,-0.921 1.39624,-1.85129 2.12626,-2.75057 0.57508,-0.67085 1.16658,-1.32715 1.78439,-1.90416 0.63012,-0.60546 1.25596,-1.22973 1.89059,-1.81436 0.74776,-0.71695 1.47868,-1.49375 2.22923,-2.20011 0.51507,-0.47532 1.03206,-0.93551 1.55083,-1.36898 0.47102,-0.41967 0.94156,-0.84993 1.41173,-1.2744 0,0 -0.92994,2.65554 -0.92994,2.65554 z"
         inkscape:connector-curvature="0" />
      <path
         inkscape:connector-curvature="0"
         d="m 296.30809,750.32886 c -0.39945,0.45676 -0.77793,0.9846 -1.16893,1.47208 -0.42605,0.51004 -0.85116,1.03071 -1.26943,1.57068 -0.61053,0.81723 -1.18313,1.70634 -1.79119,2.5295 -0.51902,0.68606 -1.02476,1.40324 -1.53521,2.10969 -0.48994,0.657 -0.94147,1.39127 -1.36882,2.13348 -0.53497,0.99639 -1.05269,2.00335 -1.57016,3.00879 -0.69246,1.40416 -1.45715,2.77296 -2.1805,4.16403 -0.93875,1.82495 -1.82571,3.66866 -2.71001,5.51135 -0.63907,1.33691 -1.29421,2.67332 -1.83608,4.0221 -0.37774,0.87662 -0.60798,1.72164 -0.86267,2.56794 -0.15514,0.53133 -0.33665,1.06707 -0.53345,1.6103 0,0 0.29235,-2.62153 0.29235,-2.62153 l 0,0 c 0.18688,-0.536 0.35546,-1.06536 0.51268,-1.59228 0.25661,-0.85185 0.51835,-1.70725 0.90372,-2.58759 0.56402,-1.3309 1.2182,-2.645 1.85228,-3.96396 0.89181,-1.84941 1.78494,-3.70044 2.72538,-5.53371 0.72728,-1.40488 1.48576,-2.79461 2.18526,-4.21146 0.52565,-1.02313 1.04223,-2.05416 1.59952,-3.06055 0.44576,-0.75578 0.91032,-1.49996 1.41506,-2.17036 0.51175,-0.70047 1.01589,-1.41876 1.53583,-2.09945 0.60756,-0.82971 1.18777,-1.71559 1.79999,-2.53534 0.42184,-0.55327 0.84828,-1.09195 1.28129,-1.60461 0.38846,-0.49118 0.77454,-0.99271 1.1613,-1.48849 0,0 -0.43821,2.76938 -0.43821,2.76938 z"
         id="path3947"
         style="color:#000000;fill:#bb8e4d;fill-opacity:1;fill-rule:nonzero;stroke:none;stroke-width:1.89999998;marker:none;visibility:visible;display:inline;overflow:visible;enable-background:accumulate" />
      <path
         style="color:#000000;fill:#bb8e4d;fill-opacity:1;fill-rule:nonzero;stroke:none;stroke-width:1.89999998;marker:none;visibility:visible;display:inline;overflow:visible;enable-background:accumulate"
         id="path3949"
         d="m 285.48594,740.45248 c -0.62137,0.0263 -1.28329,0.11535 -1.9226,0.16832 -0.68035,0.0434 -1.36825,0.0947 -2.06638,0.16392 -1.04139,0.12057 -2.11251,0.31649 -3.1568,0.44282 -0.87863,0.0966 -1.77224,0.22369 -2.66078,0.34017 -0.8366,0.0976 -1.70677,0.27445 -2.5667,0.47379 -1.12828,0.29496 -2.25303,0.60926 -3.37646,0.92269 -1.54852,0.4591 -3.11859,0.84328 -4.6779,1.27171 -2.03876,0.56928 -4.05698,1.18782 -6.07262,1.80754 -1.46069,0.4514 -2.93186,0.8911 -4.33604,1.4192 -0.92989,0.32517 -1.73583,0.7332 -2.55929,1.12483 -0.51377,0.24924 -1.04873,0.48283 -1.59979,0.71066 0,0 2.21535,-1.56398 2.21535,-1.56398 l 0,0 c 0.53881,-0.22996 1.06012,-0.46838 1.5719,-0.71317 0.82902,-0.39402 1.66422,-0.78681 2.60213,-1.1091 1.40539,-0.50036 2.85873,-0.92568 4.30222,-1.36848 2.0259,-0.61896 4.05392,-1.23809 6.10023,-1.81179 1.57258,-0.43498 3.15459,-0.83768 4.71762,-1.30037 1.14256,-0.31962 2.28509,-0.65097 3.43612,-0.93692 0.88282,-0.19549 1.76939,-0.36987 2.62633,-0.46603 0.88481,-0.11151 1.7782,-0.24043 2.65331,-0.33279 1.049,-0.13112 2.12277,-0.31949 3.16724,-0.44057 0.71079,-0.0756 1.41344,-0.13814 2.10052,-0.17845 0.64043,-0.0572 1.28723,-0.12321 1.93006,-0.18478 0,0 -2.42766,1.56077 -2.42766,1.56077 z"
         inkscape:connector-curvature="0" />
    </g>
    <g
       id="g3971"
       transform="matrix(-0.98346039,0.1811233,0.1811233,0.98346039,500.10767,-52.935492)"
       inkscape:transform-center-x="6.5"
       inkscape:transform-center-y="-4.5">
      <path
         style="color:#000000;fill:#bb8e4d;fill-opacity:1;fill-rule:nonzero;stroke:none;stroke-width:1.89999998;marker:none;visibility:visible;display:inline;overflow:visible;enable-background:accumulate"
         id="path3973"
         d="m 283.94223,743.55802 c -0.60867,0.12256 -1.24672,0.3134 -1.86857,0.46511 -0.66396,0.14868 -1.33404,0.3063 -2.01119,0.48313 -1.00716,0.28094 -2.03086,0.64086 -3.03991,0.92793 -0.85058,0.23203 -1.71081,0.49637 -2.56783,0.7495 -0.80897,0.22638 -1.63763,0.53627 -2.45237,0.86671 -1.06333,0.46654 -2.11991,0.95161 -3.17533,1.43561 -1.45019,0.69386 -2.93433,1.31714 -4.40037,1.98241 -1.91524,0.87882 -3.80188,1.80305 -5.68577,2.72806 -1.36484,0.67259 -2.74199,1.33528 -4.03805,2.07476 -0.86245,0.46548 -1.58857,0.99346 -2.33474,1.50797 -0.46473,0.32584 -0.95301,0.63953 -1.45815,0.95006 0,0 1.92094,-1.8878 1.92094,-1.8878 l 0,0 c 0.4927,-0.31072 0.96671,-0.62705 1.43021,-0.94819 0.75127,-0.51774 1.50882,-1.03523 2.37968,-1.49911 1.30196,-0.71231 2.66396,-1.35803 4.01327,-2.01946 1.89415,-0.92585 3.79035,-1.85219 5.71231,-2.73655 1.47802,-0.6738 2.97081,-1.31721 4.4347,-2.01686 1.07324,-0.49309 2.14447,-0.99774 3.23179,-1.45893 0.83798,-0.33021 1.68325,-0.64016 2.51252,-0.86832 0.85418,-0.24766 1.71387,-0.51382 2.56172,-0.74107 1.01287,-0.29252 2.04049,-0.64539 3.05059,-0.92732 0.68853,-0.18517 1.37127,-0.35615 2.04239,-0.50278 0.62225,-0.15613 1.24929,-0.32179 1.87315,-0.48253 0,0 -2.13099,1.91766 -2.13099,1.91766 z"
         inkscape:connector-curvature="0" />
      <path
         inkscape:connector-curvature="0"
         d="m 287.42914,743.63549 c -0.55895,0.26137 -1.12896,0.59583 -1.69325,0.88855 -0.6059,0.29965 -1.21545,0.60938 -1.82696,0.93941 -0.90493,0.50826 -1.80577,1.09697 -2.71099,1.61161 -0.7656,0.42416 -1.53231,0.88192 -2.29876,1.32805 -0.72669,0.40894 -1.45116,0.90347 -2.1569,1.41467 -0.91206,0.70136 -1.81286,1.41913 -2.7128,2.1356 -1.2292,1.01238 -2.50934,1.96428 -3.7612,2.95266 -1.63297,1.30064 -3.22662,2.63861 -4.81741,3.97669 -1.15186,0.97178 -2.31819,1.93684 -3.38631,2.95739 -0.71755,0.65331 -1.28695,1.3353 -1.87924,2.00893 -0.36751,0.42477 -0.76096,0.84329 -1.17157,1.26268 0,0 1.38111,-2.28035 1.38111,-2.28035 l 0,0 c 0.39849,-0.41666 0.77742,-0.8344 1.14494,-1.25433 0.59641,-0.67795 1.19898,-1.35713 1.92509,-2.01086 1.08077,-0.99557 2.23673,-1.94063 3.37639,-2.89796 1.60052,-1.3413 3.2029,-2.68355 4.84097,-3.99113 1.26131,-0.99946 2.54468,-1.97291 3.7857,-2.99412 0.91491,-0.72944 1.82491,-1.46963 2.7616,-2.17144 0.72834,-0.5164 1.4689,-1.01488 2.21481,-1.43031 0.7651,-0.44015 1.53082,-0.89954 2.29499,-1.31843 0.90753,-0.52082 1.81396,-1.10363 2.72151,-1.61353 0.62041,-0.34078 1.23883,-0.66643 1.8522,-0.96577 0.56354,-0.29709 1.12931,-0.60456 1.69324,-0.90651 0,0 -1.57716,2.35849 -1.57716,2.35849 z"
         id="path3975"
         style="color:#000000;fill:#bb8e4d;fill-opacity:1;fill-rule:nonzero;stroke:none;stroke-width:1.89999998;marker:none;visibility:visible;display:inline;overflow:visible;enable-background:accumulate" />
      <path
         style="color:#000000;fill:#bb8e4d;fill-opacity:1;fill-rule:nonzero;stroke:none;stroke-width:1.89999998;marker:none;visibility:visible;display:inline;overflow:visible;enable-background:accumulate"
         id="path3977"
         d="m 290.47814,746.99362 c -0.55895,0.26137 -1.12896,0.59583 -1.69326,0.88855 -0.6059,0.29965 -1.21544,0.60938 -1.82695,0.93941 -0.90493,0.50826 -1.80578,1.09697 -2.71099,1.61161 -0.7656,0.42416 -1.53231,0.88192 -2.29876,1.32805 -0.72669,0.40894 -1.45116,0.90347 -2.1569,1.41466 -0.91207,0.70137 -1.81287,1.41914 -2.71281,2.13561 -1.2292,1.01238 -2.50933,1.96428 -3.76119,2.95266 -1.63297,1.30064 -3.22662,2.63861 -4.81741,3.97669 -1.15186,0.97178 -2.31819,1.93684 -3.38631,2.95739 -0.71755,0.65331 -1.28696,1.3353 -1.87924,2.00893 -0.36752,0.42477 -0.76096,0.84329 -1.17158,1.26268 0,0 1.38112,-2.28035 1.38112,-2.28035 l 0,0 c 0.39848,-0.41666 0.77742,-0.8344 1.14494,-1.25433 0.5964,-0.67795 1.19898,-1.35713 1.92509,-2.01086 1.08077,-0.99557 2.23673,-1.94063 3.37639,-2.89796 1.60051,-1.3413 3.2029,-2.68355 4.84097,-3.99113 1.26131,-0.99946 2.54468,-1.97291 3.7857,-2.99412 0.91491,-0.72944 1.82491,-1.46963 2.7616,-2.17144 0.72833,-0.51641 1.46889,-1.01488 2.21481,-1.43031 0.7651,-0.44015 1.53082,-0.89954 2.29499,-1.31843 0.90753,-0.52082 1.81395,-1.10363 2.7215,-1.61353 0.62041,-0.34078 1.23884,-0.66643 1.8522,-0.96577 0.56354,-0.29709 1.12931,-0.60456 1.69325,-0.90651 0,0 -1.57716,2.35849 -1.57716,2.35849 z"
         inkscape:connector-curvature="0" />
      <path
         inkscape:connector-curvature="0"
         d="m 295.52199,747.50772 c -0.47565,0.38395 -0.94344,0.84138 -1.4163,1.25698 -0.51145,0.43204 -1.02387,0.87471 -1.53304,1.33753 -0.74843,0.70415 -1.47244,1.48538 -2.21952,2.19579 -0.63468,0.59007 -1.26189,1.213 -1.89181,1.82457 -0.60081,0.56623 -1.17771,1.21495 -1.7322,1.87546 -0.70625,0.89312 -1.39739,1.79951 -2.08804,2.70443 -0.93474,1.26878 -1.93426,2.49078 -2.89708,3.74157 -1.25305,1.64259 -2.45847,3.31221 -3.66109,4.98127 -0.87005,1.21134 -1.75585,2.41955 -2.53229,3.65865 -0.52981,0.8011 -0.90864,1.59545 -1.3118,2.38702 -0.24843,0.49775 -0.52361,0.9955 -0.81521,1.49808 0,0 0.75966,-2.53399 0.75966,-2.53399 l 0,0 c 0.28054,-0.49712 0.54184,-0.99071 0.79151,-1.48377 0.40604,-0.79673 0.81777,-1.59609 1.35577,-2.3996 0.79505,-1.21783 1.67588,-2.40422 2.53778,-3.5987 1.21123,-1.67444 2.42404,-3.35026 3.68027,-5.00077 0.96917,-1.26373 1.96635,-2.50739 2.9103,-3.78749 0.70188,-0.921 1.39624,-1.85129 2.12626,-2.75057 0.57508,-0.67085 1.16658,-1.32715 1.78439,-1.90416 0.63012,-0.60546 1.25596,-1.22973 1.89059,-1.81436 0.74776,-0.71695 1.47868,-1.49375 2.22923,-2.20011 0.51507,-0.47532 1.03206,-0.93551 1.55083,-1.36898 0.47102,-0.41967 0.94156,-0.84993 1.41173,-1.2744 0,0 -0.92994,2.65554 -0.92994,2.65554 z"
         id="path3979"
         style="color:#000000;fill:#bb8e4d;fill-opacity:1;fill-rule:nonzero;stroke:none;stroke-width:1.89999998;marker:none;visibility:visible;display:inline;overflow:visible;enable-background:accumulate" />
      <path
         style="color:#000000;fill:#bb8e4d;fill-opacity:1;fill-rule:nonzero;stroke:none;stroke-width:1.89999998;marker:none;visibility:visible;display:inline;overflow:visible;enable-background:accumulate"
         id="path3981"
         d="m 296.30809,750.32886 c -0.39945,0.45676 -0.77793,0.9846 -1.16893,1.47208 -0.42605,0.51004 -0.85116,1.03071 -1.26943,1.57068 -0.61053,0.81723 -1.18313,1.70634 -1.79119,2.5295 -0.51902,0.68606 -1.02476,1.40324 -1.53521,2.10969 -0.48994,0.657 -0.94147,1.39127 -1.36882,2.13348 -0.53497,0.99639 -1.05269,2.00335 -1.57016,3.00879 -0.69246,1.40416 -1.45715,2.77296 -2.1805,4.16403 -0.93875,1.82495 -1.82571,3.66866 -2.71001,5.51135 -0.63907,1.33691 -1.29421,2.67332 -1.83608,4.0221 -0.37774,0.87662 -0.60798,1.72164 -0.86267,2.56794 -0.15514,0.53133 -0.33665,1.06707 -0.53345,1.6103 0,0 0.29235,-2.62153 0.29235,-2.62153 l 0,0 c 0.18688,-0.536 0.35546,-1.06536 0.51268,-1.59228 0.25661,-0.85185 0.51835,-1.70725 0.90372,-2.58759 0.56402,-1.3309 1.2182,-2.645 1.85228,-3.96396 0.89181,-1.84941 1.78494,-3.70044 2.72538,-5.53371 0.72728,-1.40488 1.48576,-2.79461 2.18526,-4.21146 0.52565,-1.02313 1.04223,-2.05416 1.59952,-3.06055 0.44576,-0.75578 0.91032,-1.49996 1.41506,-2.17036 0.51175,-0.70047 1.01589,-1.41876 1.53583,-2.09945 0.60756,-0.82971 1.18777,-1.71559 1.79999,-2.53534 0.42184,-0.55327 0.84828,-1.09195 1.28129,-1.60461 0.38846,-0.49118 0.77454,-0.99271 1.1613,-1.48849 0,0 -0.43821,2.76938 -0.43821,2.76938 z"
         inkscape:connector-curvature="0" />
      <path
         inkscape:connector-curvature="0"
         d="m 285.48594,740.45248 c -0.62137,0.0263 -1.28329,0.11535 -1.9226,0.16832 -0.68035,0.0434 -1.36825,0.0947 -2.06638,0.16392 -1.04139,0.12057 -2.11251,0.31649 -3.1568,0.44282 -0.87863,0.0966 -1.77224,0.22369 -2.66078,0.34017 -0.8366,0.0976 -1.70677,0.27445 -2.5667,0.47379 -1.12828,0.29496 -2.25303,0.60926 -3.37646,0.92269 -1.54852,0.4591 -3.11859,0.84328 -4.6779,1.27171 -2.03876,0.56928 -4.05698,1.18782 -6.07262,1.80754 -1.46069,0.4514 -2.93186,0.8911 -4.33604,1.4192 -0.92989,0.32517 -1.73583,0.7332 -2.55929,1.12483 -0.51377,0.24924 -1.04873,0.48283 -1.59979,0.71066 0,0 2.21535,-1.56398 2.21535,-1.56398 l 0,0 c 0.53881,-0.22996 1.06012,-0.46838 1.5719,-0.71317 0.82902,-0.39402 1.66422,-0.78681 2.60213,-1.1091 1.40539,-0.50036 2.85873,-0.92568 4.30222,-1.36848 2.0259,-0.61896 4.05392,-1.23809 6.10023,-1.81179 1.57258,-0.43498 3.15459,-0.83768 4.71762,-1.30037 1.14256,-0.31962 2.28509,-0.65097 3.43612,-0.93692 0.88282,-0.19549 1.76939,-0.36987 2.62633,-0.46603 0.88481,-0.11151 1.7782,-0.24043 2.65331,-0.33279 1.049,-0.13112 2.12277,-0.31949 3.16724,-0.44057 0.71079,-0.0756 1.41344,-0.13814 2.10052,-0.17845 0.64043,-0.0572 1.28723,-0.12321 1.93006,-0.18478 0,0 -2.42766,1.56077 -2.42766,1.56077 z"
         id="path3983"
         style="color:#000000;fill:#bb8e4d;fill-opacity:1;fill-rule:nonzero;stroke:none;stroke-width:1.89999998;marker:none;visibility:visible;display:inline;overflow:visible;enable-background:accumulate" />
    </g>
  </g>
</svg>
